HIERARCHY
ROOT Hips
{
	OFFSET 0.000000 87.504524 0.000000
	CHANNELS 6 Xposition Yposition Zposition Xrotation Yrotation Zrotation 
	JOINT Spine
	{
		OFFSET 0.001100 9.599998 0.094300
		CHANNELS 3 Xrotation Yrotation Zrotation
		JOINT Spine1
		{
			OFFSET -0.003433 5.251266 -0.539667
			CHANNELS 3 Xrotation Yrotation Zrotation
			JOINT Spine1_split
			{
				OFFSET -0.003433 5.251266 -0.539667
				CHANNELS 3 Xrotation Yrotation Zrotation
				JOINT Spine2
				{
					OFFSET -0.003433 5.251266 -0.539667
					CHANNELS 3 Xrotation Yrotation Zrotation
					JOINT Neck
					{
						OFFSET -0.002300 14.090302 -2.521900
						CHANNELS 3 Xrotation Yrotation Zrotation
						JOINT Head
						{
							OFFSET -0.001200 9.247604 1.716000
							CHANNELS 3 Xrotation Yrotation Zrotation
							JOINT RightEye
							{
								OFFSET -4.010300 6.772202 8.508900
								CHANNELS 3 Xrotation Yrotation Zrotation
								End Site
								{
									OFFSET 0.000000 0.000000 0.000000
								}
							}
							JOINT LeftEye
							{
								OFFSET 4.034300 6.773102 8.509900
								CHANNELS 3 Xrotation Yrotation Zrotation
								End Site
								{
									OFFSET 0.000000 0.000000 0.000000
								}
							}
							JOINT HeadTop_End
							{
								OFFSET 0.013900 20.179199 0.910500
								CHANNELS 3 Xrotation Yrotation Zrotation
								End Site
								{
									OFFSET 0.000000 0.000000 0.000000
								}
							}
						}
					}
					JOINT LeftShoulder
					{
						OFFSET 2.131900 4.531349 -1.307950
						CHANNELS 3 Xrotation Yrotation Zrotation
						JOINT LeftShoulder_split
						{
							OFFSET 2.131900 4.531349 -1.307950
							CHANNELS 3 Xrotation Yrotation Zrotation
							JOINT LeftArm
							{
								OFFSET 8.542917 -0.284554 -2.446300
								CHANNELS 3 Xrotation Yrotation Zrotation
								JOINT LeftForeArm
								{
									OFFSET 25.028389 0.000000 0.000000
									CHANNELS 3 Xrotation Yrotation Zrotation
									JOINT LeftHand
									{
										OFFSET 21.425957 0.000000 0.000000
										CHANNELS 3 Xrotation Yrotation Zrotation
										JOINT LeftHandThumb1
										{
											OFFSET 2.183620 -1.612679 2.463708
											CHANNELS 3 Xrotation Yrotation Zrotation
											JOINT LeftHandThumb2
											{
												OFFSET 3.060406 -1.766930 1.766928
												CHANNELS 3 Xrotation Yrotation Zrotation
												JOINT LeftHandThumb3
												{
													OFFSET 2.453537 -1.416550 1.416552
													CHANNELS 3 Xrotation Yrotation Zrotation
													JOINT LeftHandThumb4
													{
														OFFSET 1.970108 -1.137444 1.137441
														CHANNELS 3 Xrotation Yrotation Zrotation
														End Site
														{
															OFFSET 0.000000 0.000000 0.000000
														}
													}
												}
											}
										}
										JOINT LeftHandIndex1
										{
											OFFSET 8.597389 -0.447151 2.250940
											CHANNELS 3 Xrotation Yrotation Zrotation
											JOINT LeftHandIndex2
											{
												OFFSET 3.455048 0.000000 0.000000
												CHANNELS 3 Xrotation Yrotation Zrotation
												JOINT LeftHandIndex3
												{
													OFFSET 2.575081 0.000000 0.000000
													CHANNELS 3 Xrotation Yrotation Zrotation
													JOINT LeftHandIndex4
													{
														OFFSET 2.516663 0.000000 0.000000
														CHANNELS 3 Xrotation Yrotation Zrotation
														End Site
														{
															OFFSET 0.000000 0.000000 0.000000
														}
													}
												}
											}
										}
										JOINT LeftHandMiddle1
										{
											OFFSET 9.035995 0.000000 0.000000
											CHANNELS 3 Xrotation Yrotation Zrotation
											JOINT LeftHandMiddle2
											{
												OFFSET 3.236847 0.000000 0.000000
												CHANNELS 3 Xrotation Yrotation Zrotation
												JOINT LeftHandMiddle3
												{
													OFFSET 2.697258 0.000000 0.000000
													CHANNELS 3 Xrotation Yrotation Zrotation
													JOINT LeftHandMiddle4
													{
														OFFSET 2.978371 0.000000 0.000000
														CHANNELS 3 Xrotation Yrotation Zrotation
														End Site
														{
															OFFSET 0.000000 0.000000 0.000000
														}
													}
												}
											}
										}
										JOINT LeftHandRing1
										{
											OFFSET 8.534821 -0.031822 -1.914376
											CHANNELS 3 Xrotation Yrotation Zrotation
											JOINT LeftHandRing2
											{
												OFFSET 2.715118 0.000000 0.000000
												CHANNELS 3 Xrotation Yrotation Zrotation
												JOINT LeftHandRing3
												{
													OFFSET 2.740189 0.000000 0.000000
													CHANNELS 3 Xrotation Yrotation Zrotation
													JOINT LeftHandRing4
													{
														OFFSET 2.726570 0.000000 0.000000
														CHANNELS 3 Xrotation Yrotation Zrotation
														End Site
														{
															OFFSET 0.000000 0.000000 0.000000
														}
													}
												}
											}
										}
										JOINT LeftHandPinky1
										{
											OFFSET 7.561172 -0.428123 -3.773051
											CHANNELS 3 Xrotation Yrotation Zrotation
											JOINT LeftHandPinky2
											{
												OFFSET 2.996750 0.000000 0.000000
												CHANNELS 3 Xrotation Yrotation Zrotation
												JOINT LeftHandPinky3
												{
													OFFSET 1.748390 0.000000 0.000000
													CHANNELS 3 Xrotation Yrotation Zrotation
													JOINT LeftHandPinky4
													{
														OFFSET 2.147675 0.000000 0.000000
														CHANNELS 3 Xrotation Yrotation Zrotation
														End Site
														{
															OFFSET 0.000000 0.000000 0.000000
														}
													}
												}
											}
										}
									}
								}
							}
						}
					}
					JOINT RightShoulder
					{
						OFFSET -2.137950 4.533851 -1.303000
						CHANNELS 3 Xrotation Yrotation Zrotation
						JOINT RightShoulder_split
						{
							OFFSET -2.137950 4.533851 -1.303000
							CHANNELS 3 Xrotation Yrotation Zrotation
							JOINT RightArm
							{
								OFFSET -8.497777 -0.288513 -2.404000
								CHANNELS 3 Xrotation Yrotation Zrotation
								JOINT RightForeArm
								{
									OFFSET -25.120413 0.000000 0.000000
									CHANNELS 3 Xrotation Yrotation Zrotation
									JOINT RightHand
									{
										OFFSET -21.438847 0.000000 0.000000
										CHANNELS 3 Xrotation Yrotation Zrotation
										JOINT RightHandPinky1
										{
											OFFSET -7.562275 -0.427437 -3.769875
											CHANNELS 3 Xrotation Yrotation Zrotation
											JOINT RightHandPinky2
											{
												OFFSET -2.998131 0.000000 0.000000
												CHANNELS 3 Xrotation Yrotation Zrotation
												JOINT RightHandPinky3
												{
													OFFSET -1.749687 0.000000 0.000000
													CHANNELS 3 Xrotation Yrotation Zrotation
													JOINT RightHandPinky4
													{
														OFFSET -2.148170 0.000000 0.000000
														CHANNELS 3 Xrotation Yrotation Zrotation
														End Site
														{
															OFFSET 0.000000 0.000000 0.000000
														}
													}
												}
											}
										}
										JOINT RightHandRing1
										{
											OFFSET -8.532116 -0.031250 -1.913905
											CHANNELS 3 Xrotation Yrotation Zrotation
											JOINT RightHandRing2
											{
												OFFSET -2.715736 0.000000 0.000000
												CHANNELS 3 Xrotation Yrotation Zrotation
												JOINT RightHandRing3
												{
													OFFSET -2.740326 0.000000 0.000000
													CHANNELS 3 Xrotation Yrotation Zrotation
													JOINT RightHandRing4
													{
														OFFSET -2.731010 0.000000 0.000000
														CHANNELS 3 Xrotation Yrotation Zrotation
														End Site
														{
															OFFSET 0.000000 0.000000 0.000000
														}
													}
												}
											}
										}
										JOINT RightHandMiddle1
										{
											OFFSET -9.033978 0.000000 0.000000
											CHANNELS 3 Xrotation Yrotation Zrotation
											JOINT RightHandMiddle2
											{
												OFFSET -3.236504 0.000000 0.000000
												CHANNELS 3 Xrotation Yrotation Zrotation
												JOINT RightHandMiddle3
												{
													OFFSET -2.697426 0.000000 0.000000
													CHANNELS 3 Xrotation Yrotation Zrotation
													JOINT RightHandMiddle4
													{
														OFFSET -2.979362 0.000000 0.000000
														CHANNELS 3 Xrotation Yrotation Zrotation
														End Site
														{
															OFFSET 0.000000 0.000000 0.000000
														}
													}
												}
											}
										}
										JOINT RightHandIndex1
										{
											OFFSET -8.597958 -0.445679 2.254358
											CHANNELS 3 Xrotation Yrotation Zrotation
											JOINT RightHandIndex2
											{
												OFFSET -3.452332 0.000000 0.000000
												CHANNELS 3 Xrotation Yrotation Zrotation
												JOINT RightHandIndex3
												{
													OFFSET -2.573807 0.000000 0.000000
													CHANNELS 3 Xrotation Yrotation Zrotation
													JOINT RightHandIndex4
													{
														OFFSET -2.514305 0.000000 0.000000
														CHANNELS 3 Xrotation Yrotation Zrotation
														End Site
														{
															OFFSET 0.000000 0.000000 0.000000
														}
													}
												}
											}
										}
										JOINT RightHandThumb1
										{
											OFFSET -2.181553 -1.609207 2.465017
											CHANNELS 3 Xrotation Yrotation Zrotation
											JOINT RightHandThumb2
											{
												OFFSET -3.060669 -1.767075 1.767078
												CHANNELS 3 Xrotation Yrotation Zrotation
												JOINT RightHandThumb3
												{
													OFFSET -2.453690 -1.416634 1.416637
													CHANNELS 3 Xrotation Yrotation Zrotation
													JOINT RightHandThumb4
													{
														OFFSET -1.968048 -1.136253 1.136253
														CHANNELS 3 Xrotation Yrotation Zrotation
														End Site
														{
															OFFSET 0.000000 0.000000 0.000000
														}
													}
												}
											}
										}
									}
								}
							}
						}
					}
				}
			}
		}
	}
	JOINT LeftUpLeg
	{
		OFFSET 6.905600 -6.396599 -1.128100
		CHANNELS 3 Xrotation Yrotation Zrotation
		JOINT LeftLeg
		{
			OFFSET 0.129751 -36.239845 -3.217900
			CHANNELS 3 Xrotation Yrotation Zrotation
			JOINT LeftFoot
			{
				OFFSET -0.129751 -35.289726 -6.323300
				CHANNELS 3 Xrotation Yrotation Zrotation
				JOINT LeftToeBase
				{
					OFFSET -0.641300 -8.865100 8.863300
					CHANNELS 3 Xrotation Yrotation Zrotation
					JOINT LeftToe_End
					{
						OFFSET 0.323400 0.034900 8.662100
						CHANNELS 3 Xrotation Yrotation Zrotation
						End Site
						{
							OFFSET 0.000000 0.000000 0.000000
						}
					}
				}
			}
		}
	}
	JOINT RightUpLeg
	{
		OFFSET -6.898800 -6.384697 -1.128300
		CHANNELS 3 Xrotation Yrotation Zrotation
		JOINT RightLeg
		{
			OFFSET -0.123096 -36.253479 -3.215000
			CHANNELS 3 Xrotation Yrotation Zrotation
			JOINT RightFoot
			{
				OFFSET 0.123096 -35.288391 -6.329800
				CHANNELS 3 Xrotation Yrotation Zrotation
				JOINT RightToeBase
				{
					OFFSET 0.646300 -8.869000 8.859100
					CHANNELS 3 Xrotation Yrotation Zrotation
					JOINT RightToe_End
					{
						OFFSET -0.329000 0.024100 8.659100
						CHANNELS 3 Xrotation Yrotation Zrotation
						End Site
						{
							OFFSET 0.000000 0.000000 0.000000
						}
					}
				}
			}
		}
	}
}
MOTION
Frames: 4
Frame Time: 0.016667
-0.680980 82.009903 0.613753 -6.087174 -43.033737 -4.182994 5.820341 4.661117 -1.076838 11.836148 9.038386 -3.081386 0.000000 0.000000 0.000000 11.836153 9.038378 -3.081386 -4.303075 -1.272956 0.206307 -6.271930 20.437792 -0.377165 0.000001 0.000000 -0.000000 0.000001 0.000000 -0.000000 0.000001 0.000000 -0.000000 1.392454 -0.696068 -7.877847 0.000000 0.000000 0.000000 -14.241755 2.368540 -64.018810 10.466043 -47.320435 7.633462 16.278976 0.618693 18.098861 9.163541 4.814119 -5.499007 -0.334134 0.035370 0.784147 -0.000001 -0.000008 0.000001 0.000000 -0.000001 -0.000001 -0.902008 -6.980969 -3.808394 0.031305 0.797039 -16.418006 -0.000008 0.000007 0.000002 -0.000001 0.000001 -0.000005 1.947860 9.683060 -14.539765 -0.456409 -1.565439 -21.880991 0.000010 0.000001 -0.000001 -0.000003 0.000001 0.000002 2.605874 14.896813 -31.345241 -0.572608 -2.705649 -32.011833 0.000005 0.000000 0.000009 -0.000001 0.000000 -0.000000 4.170583 18.495018 -34.987326 -0.706759 -5.788655 -39.372892 0.000002 0.000008 0.000004 0.000006 0.000001 -0.000001 1.410908 9.461492 9.792750 0.000000 0.000000 0.000000 1.111339 -24.435217 60.320870 -7.007875 41.772723 8.690757 6.561405 12.319954 11.497997 3.480991 -10.055056 24.322580 -1.458359 7.872094 41.091842 -0.000004 -0.000003 0.000013 -0.000001 -0.000001 0.000004 2.423582 -7.404524 21.763182 -0.989729 3.764372 37.431049 -0.000006 -0.000001 -0.000002 0.000002 -0.000001 -0.000003 -0.663682 -2.903864 12.731578 -0.660599 1.813500 30.578969 -0.000000 -0.000002 -0.000005 0.000000 -0.000002 -0.000001 -1.085569 -1.215445 4.525290 0.142098 -1.115520 16.942667 0.000003 0.000003 -0.000007 0.000001 -0.000002 -0.000000 -8.895835 -4.903160 -0.383719 7.904831 -19.192456 -2.856923 0.000002 0.000015 0.000004 0.000001 0.000000 0.000003 -31.223517 5.154027 13.075016 33.737221 -14.453594 0.238599 0.218377 1.447285 -8.225404 -2.319086 -3.216976 0.802958 0.000000 -0.000000 -0.000000 -10.831647 -12.818604 -16.260882 32.747151 -9.753754 -1.743253 -14.520403 -2.671846 16.772482 -1.784973 -0.356710 0.333181 0.000000 -0.000002 -0.000000 
-0.549782 81.700279 -0.184860 -5.321964 -40.945987 -4.033228 5.876165 4.403901 -0.901080 11.916310 8.507420 -2.667541 0.000000 0.000000 0.000000 11.916313 8.507419 -2.667539 -3.958452 -1.165154 -0.395067 -7.893248 18.127549 0.447087 -0.000001 0.000000 0.000000 -0.000001 0.000000 0.000000 -0.000001 0.000000 0.000000 1.599004 -1.882971 -8.243726 0.000000 0.000000 0.000000 -18.761736 -3.220310 -59.604575 8.885675 -36.695594 4.519554 15.596424 -3.475101 16.803182 8.404777 3.116304 -4.032618 -0.353910 0.054392 0.706065 -0.000003 -0.000011 -0.000004 0.000000 0.000002 0.000000 -0.283753 -8.048351 -0.047181 -0.101628 0.778657 -16.884941 -0.000011 0.000006 -0.000002 -0.000004 0.000000 -0.000004 1.239844 8.956220 -11.293052 -0.464268 -1.169529 -18.777790 0.000005 0.000003 -0.000001 0.000003 0.000000 -0.000001 1.801262 15.040439 -27.530916 -0.425984 -2.623482 -29.598604 0.000010 -0.000000 0.000007 -0.000004 -0.000001 -0.000001 3.211728 19.451400 -32.467967 -0.540581 -5.837479 -34.753761 -0.000002 0.000002 0.000000 0.000005 0.000001 0.000001 0.436918 11.386072 10.239279 0.000000 0.000000 0.000000 -2.372747 -19.553042 59.272108 -1.699757 41.029961 4.040316 10.594670 9.539515 4.629142 3.090025 -8.311600 26.507155 -1.213173 8.182150 40.000914 -0.000008 -0.000008 0.000020 -0.000002 0.000001 0.000004 2.010033 -6.626501 21.303406 -0.822622 3.900837 37.174070 -0.000003 0.000000 0.000007 -0.000000 0.000000 -0.000003 -1.409459 -2.669488 12.220816 -0.956655 1.694293 31.160727 0.000000 -0.000001 0.000001 -0.000001 0.000002 0.000000 -2.034722 -1.075651 3.976403 -0.010222 -1.307794 16.374812 0.000004 0.000003 -0.000007 -0.000001 0.000000 0.000000 -9.073047 -4.000543 -0.080515 9.384288 -17.590657 -3.254796 0.000003 0.000013 0.000006 0.000002 -0.000002 0.000003 -33.196721 4.268615 12.929748 34.994157 -14.985763 0.943767 0.090810 1.573390 -9.572690 -2.392677 -3.373577 0.918850 -0.000000 -0.000000 -0.000000 -12.772294 -14.392703 -16.230488 35.774513 -7.005303 -1.436628 -15.646111 -2.831111 13.904414 -3.336995 -1.163059 1.363321 -0.000000 -0.000001 -0.000000 
-0.372643 81.242599 -0.653511 -2.779468 -38.945213 -4.193854 5.934513 4.163121 -0.576942 12.030791 7.961049 -2.307199 0.000000 0.000000 0.000000 12.030789 7.961044 -2.307196 -3.497857 -0.979314 -0.864811 -9.615760 15.895466 1.376492 -0.000001 0.000000 -0.000000 -0.000001 0.000000 -0.000000 -0.000001 0.000000 -0.000000 1.900875 -2.736993 -8.496940 0.000000 0.000000 0.000000 -21.154455 -7.087247 -55.027446 7.249923 -29.095554 2.504126 13.501822 -6.820555 15.543823 7.639865 1.479170 -2.424535 -0.385067 0.082878 0.627075 -0.000001 -0.000008 0.000000 0.000002 0.000002 -0.000002 0.362564 -8.944483 3.213636 -0.246464 0.756653 -17.445959 -0.000007 0.000008 -0.000004 0.000000 -0.000003 -0.000001 0.665632 8.004958 -8.506146 -0.521185 -0.826579 -16.075870 0.000001 0.000002 0.000002 -0.000001 0.000000 -0.000002 1.127189 14.777929 -24.165957 -0.282664 -2.547933 -27.463185 0.000002 -0.000000 0.000006 -0.000005 -0.000001 0.000000 2.265254 19.883697 -30.225930 -0.366389 -5.861319 -30.475389 -0.000007 0.000006 0.000007 -0.000001 -0.000001 0.000000 -0.121833 13.491685 10.426919 0.000000 0.000000 0.000000 -7.380540 -14.447498 56.638835 1.846293 37.251418 0.933333 11.858458 7.397816 -0.114409 2.419644 -6.664737 28.997640 -0.891190 8.474059 38.441049 -0.000004 -0.000004 0.000013 -0.000001 -0.000001 0.000003 1.538736 -5.873617 20.770453 -0.617574 4.028731 36.656874 -0.000001 -0.000002 0.000004 0.000002 0.000001 -0.000000 -2.178782 -2.257501 11.615800 -1.276591 1.544988 31.619138 0.000001 -0.000004 -0.000004 0.000002 -0.000001 -0.000003 -2.913493 -0.604188 3.408241 -0.172549 -1.533288 15.453896 0.000002 0.000002 -0.000006 0.000000 0.000001 0.000000 -9.414996 -3.009692 0.156733 11.012088 -15.818609 -3.800768 0.000005 0.000015 0.000006 0.000002 -0.000000 -0.000000 -37.298239 2.495834 13.775376 37.692614 -14.449422 1.743249 0.043807 1.671688 -10.737973 -2.463205 -3.511050 1.020830 0.000000 -0.000002 -0.000000 -15.496227 -16.242043 -14.678372 38.372962 -4.553597 -1.389221 -16.412676 -2.908354 10.949607 -4.828820 -2.053598 2.480373 -0.000000 0.000001 0.000000 
-0.146128 80.619301 -1.193105 -0.125621 -37.302545 -4.520581 5.972260 3.940202 -0.313462 12.102609 7.427270 -2.019624 0.000000 0.000000 0.000000 12.102608 7.427268 -2.019625 -3.044089 -0.770595 -1.256983 -11.435785 13.657566 2.349196 0.000001 -0.000000 0.000000 0.000001 -0.000000 0.000000 0.000001 -0.000000 0.000000 2.253838 -3.386313 -8.611109 0.000000 0.000000 0.000000 -22.064007 -9.413713 -50.358244 5.612507 -23.622689 0.826261 10.665714 -9.253679 14.338539 6.943827 -0.060559 -0.778157 -0.422013 0.114001 0.548612 -0.000005 -0.000012 -0.000000 0.000001 -0.000001 -0.000001 0.913911 -9.635097 5.669373 -0.408378 0.708054 -18.283761 -0.000009 0.000007 0.000004 -0.000000 -0.000003 0.000002 0.200949 6.898737 -6.425894 -0.621470 -0.569047 -14.111488 0.000000 0.000001 0.000004 0.000001 -0.000000 0.000003 0.529055 14.146783 -21.530445 -0.152155 -2.493106 -25.830415 0.000004 -0.000001 0.000007 0.000002 0.000001 -0.000000 1.304274 19.801495 -28.536015 -0.204276 -5.871887 -26.877334 0.000002 0.000005 0.000005 -0.000002 0.000000 0.000001 -0.451854 15.686981 10.386556 0.000000 0.000000 0.000000 -12.461388 -9.933883 53.282524 4.191789 32.747011 -1.187730 11.594361 5.131344 -3.413431 1.553514 -5.134043 31.665170 -0.542907 8.749446 36.737853 -0.000004 -0.000005 0.000013 -0.000002 -0.000000 0.000001 1.026296 -5.133346 20.326303 -0.398959 4.153862 36.062152 -0.000000 0.000001 0.000002 0.000000 -0.000001 0.000002 -2.943499 -1.754106 11.089952 -1.605090 1.382101 32.044533 -0.000000 -0.000003 -0.000001 0.000001 -0.000000 -0.000002 -3.719756 0.030611 2.947300 -0.336367 -1.765004 14.425518 0.000000 0.000002 -0.000009 -0.000001 0.000000 0.000002 -9.804840 -2.003074 0.368510 12.705225 -13.998118 -4.440735 0.000000 0.000015 0.000008 0.000002 -0.000002 -0.000008 -42.223946 1.358705 15.429568 41.167265 -14.526679 1.660470 0.614567 1.462736 -9.962532 -2.519504 -3.561015 1.061256 -0.000000 -0.000001 0.000000 -19.033857 -17.694992 -12.936564 41.987208 -2.556694 -1.806996 -16.415808 -2.828202 8.498217 -6.387299 -3.087069 3.930538 -0.000000 0.000001 -0.000000 
